# xmcd
#
# Track frame offsets:
#	150
#	17270
#	29765
#
# Disc length: 718 seconds
#
# Revision: 0
# Processed by: cddbd v1.5.2PL0 Copyright (c) Steve Scherf et al.
# Submitted via: audiograbber 1.83.01
#
DISCID=1902cc03
DTITLE=JW Roy - Sixth Street (Single)
DYEAR=1999
DGENRE=Americana
TTITLE0=Sixth Street
TTITLE1=Nothing Keeps Me Satisfied
TTITLE2=Tecumseh Valley
EXTD=
EXTT0=
EXTT1=
EXTT2=
PLAYORDER=
